<mxfile host="app.diagrams.net" modified="2024-01-14T17:26:17.163Z" agent="Mozilla/5.0 (Windows NT 10.0; Win64; x64; rv:121.0) Gecko/20100101 Firefox/121.0" etag="zYGQVwIzKYt17m8Ip-wL" version="22.1.18" type="device" pages="2">
  <diagram id="7yWUGXhqCYRc0dU-RRST" name="Existing_Cracker">
    <mxGraphModel dx="2901" dy="1134" grid="1" gridSize="10" guides="1" tooltips="1" connect="1" arrows="1" fold="1" page="1" pageScale="1" pageWidth="827" pageHeight="1169" math="0" shadow="0">
      <root>
        <mxCell id="0" />
        <mxCell id="1" parent="0" />
        <mxCell id="VkhR3qFCeyXpOTwrWJYL-1" value="" style="rounded=0;whiteSpace=wrap;html=1;" vertex="1" parent="1">
          <mxGeometry x="-40" y="280" width="960" height="360" as="geometry" />
        </mxCell>
        <mxCell id="cZdxD656mG2Xc0vZnN7s-1" value="" style="rounded=0;whiteSpace=wrap;html=1;dashed=1;" vertex="1" parent="1">
          <mxGeometry x="230" y="360" width="290" height="210" as="geometry" />
        </mxCell>
        <mxCell id="wtoXDMX7PSXrXL5x5ShX-1" value="&lt;div&gt;&lt;b&gt;BCRYPT QUADCORE&lt;/b&gt;&lt;/div&gt;&lt;div&gt;&lt;b&gt;0&lt;br&gt;&lt;/b&gt;&lt;/div&gt;" style="rounded=0;whiteSpace=wrap;html=1;" vertex="1" parent="1">
          <mxGeometry x="250" y="380" width="120" height="80" as="geometry" />
        </mxCell>
        <mxCell id="wtoXDMX7PSXrXL5x5ShX-2" value="&lt;div&gt;&lt;b&gt;BCRYPT QUADCORE&lt;/b&gt;&lt;/div&gt;&lt;div&gt;&lt;b&gt;1&lt;br&gt;&lt;/b&gt;&lt;/div&gt;" style="rounded=0;whiteSpace=wrap;html=1;" vertex="1" parent="1">
          <mxGeometry x="380" y="380" width="120" height="80" as="geometry" />
        </mxCell>
        <mxCell id="wtoXDMX7PSXrXL5x5ShX-3" value="&lt;div&gt;&lt;b&gt;BCRYPT QUADCORE&lt;/b&gt;&lt;/div&gt;&lt;div&gt;&lt;b&gt;2&lt;br&gt;&lt;/b&gt;&lt;/div&gt;" style="rounded=0;whiteSpace=wrap;html=1;" vertex="1" parent="1">
          <mxGeometry x="250" y="470" width="120" height="80" as="geometry" />
        </mxCell>
        <mxCell id="wtoXDMX7PSXrXL5x5ShX-4" value="&lt;div&gt;&lt;b&gt;BCRYPT QUADCORE&lt;/b&gt;&lt;/div&gt;&lt;div&gt;&lt;b&gt;N&lt;br&gt;&lt;/b&gt;&lt;/div&gt;" style="rounded=0;whiteSpace=wrap;html=1;" vertex="1" parent="1">
          <mxGeometry x="380" y="470" width="120" height="80" as="geometry" />
        </mxCell>
        <mxCell id="QP-vUVQkgmfVrHdlFvy6-1" value="&lt;div&gt;&lt;b&gt;BRAM&lt;/b&gt;&lt;/div&gt;&lt;div&gt;sbox01&lt;/div&gt;&lt;div&gt;&lt;i&gt;16kb&lt;b&gt;&lt;br&gt;&lt;/b&gt;&lt;/i&gt;&lt;/div&gt;" style="rounded=0;whiteSpace=wrap;html=1;" vertex="1" parent="1">
          <mxGeometry x="-10" y="360" width="160" height="80" as="geometry" />
        </mxCell>
        <mxCell id="QP-vUVQkgmfVrHdlFvy6-3" value="&lt;div&gt;&lt;b&gt;BRAM&lt;/b&gt;&lt;/div&gt;&lt;div&gt;sbox23&lt;/div&gt;&lt;div&gt;&lt;i&gt;16kb&lt;b&gt;&lt;br&gt;&lt;/b&gt;&lt;/i&gt;&lt;/div&gt;" style="rounded=0;whiteSpace=wrap;html=1;" vertex="1" parent="1">
          <mxGeometry x="-10" y="490" width="160" height="80" as="geometry" />
        </mxCell>
        <mxCell id="30-1kkLSx0XOFjY6N5ov-1" value="" style="shape=flexArrow;endArrow=classic;html=1;rounded=0;exitX=1;exitY=0.5;exitDx=0;exitDy=0;entryX=0;entryY=0.5;entryDx=0;entryDy=0;strokeWidth=2;fillColor=#4D4D4D;strokeColor=none;" edge="1" parent="1">
          <mxGeometry width="50" height="50" relative="1" as="geometry">
            <mxPoint x="150" y="399.50000000000006" as="sourcePoint" />
            <mxPoint x="230" y="399.50000000000006" as="targetPoint" />
          </mxGeometry>
        </mxCell>
        <mxCell id="30-1kkLSx0XOFjY6N5ov-2" value="" style="shape=flexArrow;endArrow=classic;html=1;rounded=0;exitX=1;exitY=0.5;exitDx=0;exitDy=0;entryX=0;entryY=0.5;entryDx=0;entryDy=0;strokeWidth=2;fillColor=#4D4D4D;strokeColor=none;" edge="1" parent="1">
          <mxGeometry width="50" height="50" relative="1" as="geometry">
            <mxPoint x="150" y="529.5" as="sourcePoint" />
            <mxPoint x="230" y="529.5" as="targetPoint" />
          </mxGeometry>
        </mxCell>
        <mxCell id="30-1kkLSx0XOFjY6N5ov-3" value="&lt;div style=&quot;font-size: 14px;&quot;&gt;&lt;font style=&quot;font-size: 14px;&quot;&gt;&lt;b&gt;&lt;br&gt;&lt;/b&gt;&lt;/font&gt;&lt;/div&gt;&lt;div style=&quot;font-size: 14px;&quot;&gt;&lt;font style=&quot;font-size: 14px;&quot;&gt;&lt;b&gt;&lt;br&gt;&lt;/b&gt;&lt;/font&gt;&lt;/div&gt;&lt;div style=&quot;font-size: 14px;&quot;&gt;&lt;font style=&quot;font-size: 14px;&quot;&gt;&lt;b&gt;RESULT REDUCTION&amp;nbsp;&lt;/b&gt;&lt;/font&gt;&lt;/div&gt;&lt;div style=&quot;font-size: 14px;&quot;&gt;&lt;font style=&quot;font-size: 14px;&quot;&gt;&lt;b&gt;BUFFER TREE&lt;br&gt;&lt;/b&gt;&lt;/font&gt;&lt;/div&gt;&lt;div style=&quot;font-size: 14px;&quot;&gt;&lt;font style=&quot;font-size: 14px;&quot;&gt;&lt;br&gt;&lt;/font&gt;&lt;/div&gt;&lt;div style=&quot;font-size: 14px;&quot;&gt;&lt;font style=&quot;font-size: 14px;&quot;&gt;&lt;i&gt;&lt;b&gt;&lt;br&gt;&lt;/b&gt;&lt;/i&gt;&lt;/font&gt;&lt;/div&gt;" style="rounded=0;whiteSpace=wrap;html=1;" vertex="1" parent="1">
          <mxGeometry x="640" y="360" width="200" height="210" as="geometry" />
        </mxCell>
        <mxCell id="30-1kkLSx0XOFjY6N5ov-4" value="" style="shape=flexArrow;endArrow=classic;html=1;rounded=0;exitX=1;exitY=0.5;exitDx=0;exitDy=0;entryX=0;entryY=0.5;entryDx=0;entryDy=0;strokeWidth=2;fillColor=#4D4D4D;strokeColor=none;" edge="1" parent="1" target="30-1kkLSx0XOFjY6N5ov-3">
          <mxGeometry width="50" height="50" relative="1" as="geometry">
            <mxPoint x="520" y="464.5" as="sourcePoint" />
            <mxPoint x="600" y="464.5" as="targetPoint" />
          </mxGeometry>
        </mxCell>
        <mxCell id="-75MMwXWbEH1OradtFEq-1" value="&lt;b&gt;PASSWORD&lt;/b&gt;" style="rounded=0;whiteSpace=wrap;html=1;fillColor=none;strokeColor=none;" vertex="1" parent="1">
          <mxGeometry x="520" y="380" width="120" height="60" as="geometry" />
        </mxCell>
        <mxCell id="-75MMwXWbEH1OradtFEq-3" value="" style="shape=flexArrow;endArrow=classic;html=1;rounded=0;exitX=1;exitY=0.5;exitDx=0;exitDy=0;strokeWidth=2;fillColor=#4D4D4D;strokeColor=none;" edge="1" parent="1">
          <mxGeometry width="50" height="50" relative="1" as="geometry">
            <mxPoint x="840" y="464.5" as="sourcePoint" />
            <mxPoint x="920" y="465" as="targetPoint" />
          </mxGeometry>
        </mxCell>
        <mxCell id="E36cs5E26wyTfs3jO_w_-1" value="" style="shape=flexArrow;endArrow=classic;html=1;rounded=0;entryX=0;entryY=0.5;entryDx=0;entryDy=0;strokeWidth=2;fillColor=#4D4D4D;strokeColor=none;" edge="1" parent="1">
          <mxGeometry width="50" height="50" relative="1" as="geometry">
            <mxPoint x="-110" y="384" as="sourcePoint" />
            <mxPoint x="-40" y="384.00000000000006" as="targetPoint" />
          </mxGeometry>
        </mxCell>
        <mxCell id="E36cs5E26wyTfs3jO_w_-2" value="&lt;b&gt;SALT&lt;/b&gt;" style="rounded=0;whiteSpace=wrap;html=1;fillColor=none;strokeColor=none;" vertex="1" parent="1">
          <mxGeometry x="-110" y="334" width="70" height="40" as="geometry" />
        </mxCell>
        <mxCell id="E36cs5E26wyTfs3jO_w_-3" value="" style="shape=flexArrow;endArrow=classic;html=1;rounded=0;entryX=0;entryY=0.5;entryDx=0;entryDy=0;strokeWidth=2;fillColor=#4D4D4D;strokeColor=none;" edge="1" parent="1">
          <mxGeometry width="50" height="50" relative="1" as="geometry">
            <mxPoint x="-110" y="464" as="sourcePoint" />
            <mxPoint x="-40" y="464" as="targetPoint" />
          </mxGeometry>
        </mxCell>
        <mxCell id="E36cs5E26wyTfs3jO_w_-4" value="&lt;b&gt;HASH&lt;/b&gt;" style="rounded=0;whiteSpace=wrap;html=1;fillColor=none;strokeColor=none;" vertex="1" parent="1">
          <mxGeometry x="-110" y="419" width="70" height="40" as="geometry" />
        </mxCell>
        <mxCell id="E36cs5E26wyTfs3jO_w_-5" value="" style="shape=flexArrow;endArrow=classic;html=1;rounded=0;entryX=0;entryY=0.5;entryDx=0;entryDy=0;strokeWidth=2;fillColor=#4D4D4D;strokeColor=none;" edge="1" parent="1">
          <mxGeometry width="50" height="50" relative="1" as="geometry">
            <mxPoint x="-110" y="549" as="sourcePoint" />
            <mxPoint x="-40" y="549" as="targetPoint" />
          </mxGeometry>
        </mxCell>
        <mxCell id="E36cs5E26wyTfs3jO_w_-6" value="&lt;b&gt;...&lt;/b&gt;" style="rounded=0;whiteSpace=wrap;html=1;fillColor=none;strokeColor=none;" vertex="1" parent="1">
          <mxGeometry x="-110" y="504" width="70" height="40" as="geometry" />
        </mxCell>
        <mxCell id="csWk_fNbGEXnSbdket3t-1" value="&lt;b&gt;BCRYPT CRACKER&lt;br&gt;&lt;/b&gt;" style="rounded=0;whiteSpace=wrap;html=1;fillColor=none;strokeColor=none;" vertex="1" parent="1">
          <mxGeometry x="-40" y="280" width="200" height="60" as="geometry" />
        </mxCell>
      </root>
    </mxGraphModel>
  </diagram>
  <diagram name="Existing_Quadcore" id="PX9Hx9iEjZCel9NMFfMi">
    <mxGraphModel dx="2074" dy="1134" grid="1" gridSize="10" guides="1" tooltips="1" connect="1" arrows="1" fold="1" page="1" pageScale="1" pageWidth="827" pageHeight="1169" math="0" shadow="0">
      <root>
        <mxCell id="0" />
        <mxCell id="1" parent="0" />
        <mxCell id="7yhDiT4KqBp_AADEcEUV-14" value="" style="rounded=0;whiteSpace=wrap;html=1;" vertex="1" parent="1">
          <mxGeometry x="110" y="360" width="820" height="350" as="geometry" />
        </mxCell>
        <mxCell id="7yhDiT4KqBp_AADEcEUV-11" value="" style="rounded=0;whiteSpace=wrap;html=1;dashed=1;" vertex="1" parent="1">
          <mxGeometry x="590" y="430" width="300" height="180" as="geometry" />
        </mxCell>
        <mxCell id="7yhDiT4KqBp_AADEcEUV-2" value="&lt;div&gt;&lt;b&gt;BRAM&lt;/b&gt;&lt;/div&gt;&lt;div&gt;password_memory&lt;/div&gt;&lt;div&gt;&lt;i&gt;16kb&lt;/i&gt;&lt;br&gt;&lt;/div&gt;" style="rounded=0;whiteSpace=wrap;html=1;" vertex="1" parent="1">
          <mxGeometry x="390" y="430" width="120" height="180" as="geometry" />
        </mxCell>
        <mxCell id="7yhDiT4KqBp_AADEcEUV-3" value="&lt;b&gt;PASSWORD_GENERATOR&lt;/b&gt;" style="rounded=0;whiteSpace=wrap;html=1;" vertex="1" parent="1">
          <mxGeometry x="150" y="430" width="160" height="180" as="geometry" />
        </mxCell>
        <mxCell id="7yhDiT4KqBp_AADEcEUV-7" value="&lt;div&gt;&lt;b&gt;BCRYPT CORE&lt;/b&gt;&lt;/div&gt;&lt;div&gt;&lt;b&gt;0&lt;/b&gt;&lt;/div&gt;" style="rounded=0;whiteSpace=wrap;html=1;" vertex="1" parent="1">
          <mxGeometry x="600" y="440" width="130" height="70" as="geometry" />
        </mxCell>
        <mxCell id="7yhDiT4KqBp_AADEcEUV-8" value="&lt;div&gt;&lt;b&gt;BCRYPT CORE&lt;/b&gt;&lt;/div&gt;&lt;div&gt;&lt;b&gt;1&lt;br&gt;&lt;/b&gt;&lt;/div&gt;" style="rounded=0;whiteSpace=wrap;html=1;" vertex="1" parent="1">
          <mxGeometry x="750" y="440" width="130" height="70" as="geometry" />
        </mxCell>
        <mxCell id="7yhDiT4KqBp_AADEcEUV-9" value="&lt;div&gt;&lt;b&gt;BCRYPT CORE&lt;/b&gt;&lt;/div&gt;&lt;div&gt;&lt;b&gt;2&lt;br&gt;&lt;/b&gt;&lt;/div&gt;" style="rounded=0;whiteSpace=wrap;html=1;" vertex="1" parent="1">
          <mxGeometry x="600" y="530" width="130" height="70" as="geometry" />
        </mxCell>
        <mxCell id="7yhDiT4KqBp_AADEcEUV-10" value="&lt;div&gt;&lt;b&gt;BCRYPT CORE&lt;/b&gt;&lt;/div&gt;&lt;div&gt;&lt;b&gt;3&lt;br&gt;&lt;/b&gt;&lt;/div&gt;" style="rounded=0;whiteSpace=wrap;html=1;" vertex="1" parent="1">
          <mxGeometry x="750" y="530" width="130" height="70" as="geometry" />
        </mxCell>
        <mxCell id="7yhDiT4KqBp_AADEcEUV-12" value="" style="shape=flexArrow;endArrow=classic;html=1;rounded=0;exitX=1;exitY=0.5;exitDx=0;exitDy=0;entryX=0;entryY=0.5;entryDx=0;entryDy=0;strokeWidth=2;fillColor=#4D4D4D;strokeColor=none;" edge="1" parent="1">
          <mxGeometry width="50" height="50" relative="1" as="geometry">
            <mxPoint x="510" y="519.58" as="sourcePoint" />
            <mxPoint x="590" y="519.58" as="targetPoint" />
          </mxGeometry>
        </mxCell>
        <mxCell id="7yhDiT4KqBp_AADEcEUV-13" value="" style="shape=flexArrow;endArrow=classic;html=1;rounded=0;exitX=1;exitY=0.5;exitDx=0;exitDy=0;entryX=0;entryY=0.5;entryDx=0;entryDy=0;strokeWidth=2;fillColor=#4D4D4D;strokeColor=none;" edge="1" parent="1">
          <mxGeometry width="50" height="50" relative="1" as="geometry">
            <mxPoint x="310" y="519.58" as="sourcePoint" />
            <mxPoint x="390" y="519.58" as="targetPoint" />
          </mxGeometry>
        </mxCell>
        <mxCell id="7yhDiT4KqBp_AADEcEUV-15" value="" style="shape=flexArrow;endArrow=classic;html=1;rounded=0;exitX=0.5;exitY=1;exitDx=0;exitDy=0;strokeWidth=2;fillColor=#4D4D4D;strokeColor=none;" edge="1" parent="1" source="7yhDiT4KqBp_AADEcEUV-2">
          <mxGeometry width="50" height="50" relative="1" as="geometry">
            <mxPoint x="470" y="650" as="sourcePoint" />
            <mxPoint x="930" y="680" as="targetPoint" />
            <Array as="points">
              <mxPoint x="450" y="680" />
            </Array>
          </mxGeometry>
        </mxCell>
        <mxCell id="7yhDiT4KqBp_AADEcEUV-16" value="&lt;b&gt;PASSWORD&lt;/b&gt;" style="rounded=0;whiteSpace=wrap;html=1;fillColor=none;strokeColor=none;" vertex="1" parent="1">
          <mxGeometry x="450" y="620" width="480" height="60" as="geometry" />
        </mxCell>
        <mxCell id="7yhDiT4KqBp_AADEcEUV-17" value="&lt;b&gt;BCRYPT QUADCORE&lt;/b&gt;" style="rounded=0;whiteSpace=wrap;html=1;fillColor=none;strokeColor=none;" vertex="1" parent="1">
          <mxGeometry x="110" y="360" width="200" height="60" as="geometry" />
        </mxCell>
        <mxCell id="7yhDiT4KqBp_AADEcEUV-18" value="" style="shape=flexArrow;endArrow=classic;html=1;rounded=0;entryX=0;entryY=0.5;entryDx=0;entryDy=0;strokeWidth=2;fillColor=#4D4D4D;strokeColor=none;" edge="1" parent="1">
          <mxGeometry width="50" height="50" relative="1" as="geometry">
            <mxPoint x="40" y="480" as="sourcePoint" />
            <mxPoint x="110" y="480.00000000000006" as="targetPoint" />
          </mxGeometry>
        </mxCell>
        <mxCell id="7yhDiT4KqBp_AADEcEUV-19" value="&lt;b&gt;SALT&lt;/b&gt;" style="rounded=0;whiteSpace=wrap;html=1;fillColor=none;strokeColor=none;" vertex="1" parent="1">
          <mxGeometry x="40" y="430" width="70" height="40" as="geometry" />
        </mxCell>
        <mxCell id="7yhDiT4KqBp_AADEcEUV-22" value="" style="shape=flexArrow;endArrow=classic;html=1;rounded=0;entryX=0;entryY=0.5;entryDx=0;entryDy=0;strokeWidth=2;fillColor=#4D4D4D;strokeColor=none;" edge="1" parent="1">
          <mxGeometry width="50" height="50" relative="1" as="geometry">
            <mxPoint x="40" y="560" as="sourcePoint" />
            <mxPoint x="110" y="560" as="targetPoint" />
          </mxGeometry>
        </mxCell>
        <mxCell id="7yhDiT4KqBp_AADEcEUV-23" value="&lt;b&gt;HASH&lt;/b&gt;" style="rounded=0;whiteSpace=wrap;html=1;fillColor=none;strokeColor=none;" vertex="1" parent="1">
          <mxGeometry x="40" y="515" width="70" height="40" as="geometry" />
        </mxCell>
        <mxCell id="7yhDiT4KqBp_AADEcEUV-24" value="" style="shape=flexArrow;endArrow=classic;html=1;rounded=0;entryX=0;entryY=0.5;entryDx=0;entryDy=0;strokeWidth=2;fillColor=#4D4D4D;strokeColor=none;" edge="1" parent="1">
          <mxGeometry width="50" height="50" relative="1" as="geometry">
            <mxPoint x="40" y="645" as="sourcePoint" />
            <mxPoint x="110" y="645" as="targetPoint" />
          </mxGeometry>
        </mxCell>
        <mxCell id="7yhDiT4KqBp_AADEcEUV-25" value="&lt;b&gt;...&lt;/b&gt;" style="rounded=0;whiteSpace=wrap;html=1;fillColor=none;strokeColor=none;" vertex="1" parent="1">
          <mxGeometry x="40" y="600" width="70" height="40" as="geometry" />
        </mxCell>
      </root>
    </mxGraphModel>
  </diagram>
</mxfile>
